<?xml version="1.0" standalone="no"?>
<!DOCTYPE svg PUBLIC "-//W3C//DTD SVG 20010904//EN"
 "http://www.w3.org/TR/2001/REC-SVG-20010904/DTD/svg10.dtd">
<svg version="1.0" xmlns="http://www.w3.org/2000/svg"
 width="544.000000pt" height="435.000000pt" viewBox="0 0 544.000000 435.000000"
 preserveAspectRatio="xMidYMid meet">
<metadata>
Created by potrace 1.16, written by Peter Selinger 2001-2019
</metadata>
<g transform="translate(0.000000,435.000000) scale(0.100000,-0.100000)"
fill="#000000" stroke="none">
<path d="M104 4304 c-17 -8 -38 -31 -47 -50 -16 -32 -17 -179 -17 -1862 0
-1794 0 -1828 20 -1859 40 -67 -19 -63 1026 -63 829 0 954 -2 1007 -16 78 -20
122 -43 210 -109 40 -30 91 -68 114 -86 24 -17 41 -35 38 -39 -3 -5 0 -12 6
-16 8 -4 9 -3 5 4 -13 21 7 12 58 -26 129 -97 138 -102 187 -102 39 0 56 6 93
35 26 19 49 35 52 35 2 0 17 11 32 25 15 14 52 42 82 62 30 21 83 59 118 86
34 26 68 45 74 41 7 -4 8 -3 4 4 -10 17 46 48 137 77 l78 25 952 0 c741 0 957
3 977 13 13 7 35 28 47 46 l23 34 0 1829 c0 1997 4 1860 -56 1907 -27 21 -28
21 -999 21 -605 0 -993 -4 -1026 -10 -72 -13 -203 -66 -259 -103 -25 -17 -107
-77 -183 -134 -76 -57 -142 -103 -148 -103 -5 0 -62 39 -127 88 -229 171 -255
187 -372 230 l-75 27 -1000 2 c-882 3 -1004 1 -1031 -13z m2019 -267 c75 -24
98 -39 354 -227 l102 -75 1 -1058 c0 -1159 -3 -1092 59 -1136 57 -41 156 -18
185 44 14 29 16 148 16 1092 l0 1058 157 115 c194 142 231 165 312 190 61 19
91 20 937 20 l874 0 0 -1665 0 -1664 -912 -3 -913 -4 -77 -26 c-106 -35 -165
-71 -350 -209 l-159 -119 -122 93 c-172 130 -252 183 -325 212 -137 55 -130
55 -1083 55 l-879 0 0 1665 0 1665 875 0 874 0 74 -23z"/>
<path d="M684 3056 c-105 -46 -98 -208 11 -244 30 -10 190 -12 736 -10 687 3
698 3 726 24 87 63 74 189 -23 230 -47 20 -1404 20 -1450 0z"/>
<path d="M3273 3049 c-101 -50 -87 -208 22 -238 54 -15 1392 -13 1435 2 53 19
83 70 78 134 -3 33 -12 61 -24 74 -44 49 -37 49 -776 49 -680 0 -694 0 -735
-21z"/>
<path d="M684 2320 c-11 -4 -33 -22 -47 -40 -22 -25 -27 -42 -27 -82 0 -45 4
-54 39 -89 l39 -39 719 0 718 0 37 25 c68 46 73 139 11 201 l-34 34 -717 -1
c-394 0 -726 -4 -738 -9z"/>
<path d="M3270 2313 c-78 -40 -88 -164 -17 -215 l32 -23 713 -3 c790 -3 761
-5 797 61 17 32 17 41 3 149 -1 9 -6 14 -11 11 -4 -3 -17 3 -29 14 -19 17 -56
18 -737 21 -666 2 -718 1 -751 -15z"/>
<path d="M690 1583 c-19 -7 -45 -25 -58 -40 -20 -24 -23 -37 -19 -85 4 -64 22
-92 74 -114 48 -21 1398 -20 1447 0 70 29 102 107 70 172 -39 79 16 73 -774
76 -531 2 -713 0 -740 -9z"/>
<path d="M3702 1590 l-434 -5 -28 -32 c-55 -62 -45 -147 23 -197 28 -21 39
-21 733 -24 777 -3 755 -4 794 60 12 21 20 51 20 80 0 41 -5 52 -35 83 -33 33
-40 35 -98 35 -34 0 -170 1 -302 2 -132 2 -435 1 -673 -2z"/>
</g>
</svg>
