<?xml version="1.0" standalone="no"?>
<!DOCTYPE svg PUBLIC "-//W3C//DTD SVG 20010904//EN"
 "http://www.w3.org/TR/2001/REC-SVG-20010904/DTD/svg10.dtd">
<svg version="1.0" xmlns="http://www.w3.org/2000/svg"
 width="379.000000pt" height="379.000000pt" viewBox="0 0 379.000000 379.000000"
 preserveAspectRatio="xMidYMid meet">
<metadata>
Created by potrace 1.16, written by Peter Selinger 2001-2019
</metadata>
<g transform="translate(0.000000,379.000000) scale(0.100000,-0.100000)"
fill="#000000" stroke="none">
<path d="M2387 3724 c-229 -41 -457 -164 -624 -336 -247 -254 -367 -609 -324
-958 l12 -94 -702 -702 -701 -701 2 -119 c1 -65 7 -265 14 -444 l11 -325 220
-7 c121 -5 321 -12 445 -16 l225 -8 704 703 705 704 94 -12 c208 -26 470 19
656 113 152 76 315 214 419 353 77 103 161 276 193 401 35 132 44 376 20 502
-95 495 -480 874 -966 952 -91 14 -310 11 -403 -6z m388 -109 c327 -53 613
-261 764 -555 93 -180 128 -341 118 -539 -27 -541 -440 -961 -992 -1006 -71
-6 -128 -2 -287 21 l-47 7 -707 -707 -707 -707 -191 6 c-105 4 -270 10 -366
14 l-175 6 -6 180 c-4 99 -10 264 -13 366 l-7 186 710 711 710 710 -10 33
c-22 78 -31 227 -19 334 66 614 619 1039 1225 940z"/>
<path d="M2497 2979 c-55 -13 -116 -46 -172 -94 -182 -155 -188 -444 -14 -610
68 -65 142 -102 235 -117 174 -29 360 74 437 242 61 132 44 304 -40 414 -58
77 -133 132 -209 156 -70 21 -169 25 -237 9z m231 -129 c105 -45 176 -156 177
-275 0 -172 -128 -305 -295 -305 -97 0 -155 23 -221 89 -66 66 -89 124 -89
220 1 102 45 186 128 243 89 62 198 72 300 28z"/>
</g>
</svg>
